<?xml version="1.0" standalone="no"?>
<!DOCTYPE svg PUBLIC "-//W3C//DTD SVG 20010904//EN"
 "http://www.w3.org/TR/2001/REC-SVG-20010904/DTD/svg10.dtd">
<svg version="1.0" xmlns="http://www.w3.org/2000/svg"
 width="300.000000pt" height="300.000000pt" viewBox="0 0 300.000000 300.000000"
 preserveAspectRatio="xMidYMid meet">
<metadata>
Created by potrace 1.10, written by Peter Selinger 2001-2011
</metadata>
<g transform="translate(0.000000,300.000000) scale(0.100000,-0.100000)"
fill="#000000" stroke="none">
<path d="M1450 2985 c-15 -18 -5 -35 21 -35 12 0 19 7 19 19 0 24 -25 34 -40
16z"/>
<path d="M1304 2975 c-8 -19 3 -35 26 -35 19 0 30 17 23 38 -6 17 -42 15 -49
-3z"/>
<path d="M1582 2968 c2 -15 10 -23 23 -23 13 0 21 8 23 23 3 18 -1 22 -23 22
-22 0 -26 -4 -23 -22z"/>
<path d="M1717 2967 c-8 -21 8 -39 29 -35 27 5 25 42 -2 46 -12 2 -24 -3 -27
-11z"/>
<path d="M2255 2966 c11 -7 43 -27 72 -44 29 -17 63 -38 77 -47 18 -12 26 -13
32 -4 4 7 3 9 -3 6 -13 -8 -65 27 -56 39 5 5 4 6 -1 2 -8 -7 -89 32 -110 53
-6 5 -15 9 -20 9 -6 0 -2 -6 9 -14z"/>
<path d="M1174 2955 c-8 -20 3 -48 18 -43 6 2 16 12 22 21 8 13 7 20 -4 27
-21 14 -30 12 -36 -5z"/>
<path d="M680 2942 c0 -10 -50 -37 -62 -34 -5 1 -8 -3 -8 -9 0 -5 -6 -7 -12
-3 -7 4 -10 4 -6 -1 9 -9 -92 -81 -107 -76 -5 1 -7 0 -3 -4 7 -7 -43 -55 -57
-55 -4 0 -16 -11 -27 -25 -11 -14 -23 -23 -28 -20 -4 3 -13 -2 -20 -10 -7 -8
-9 -15 -4 -15 4 0 -3 -11 -16 -25 -12 -13 -26 -22 -30 -20 -4 3 -16 -5 -26
-16 -11 -12 -17 -22 -14 -24 3 -2 -18 -32 -46 -67 -28 -34 -57 -73 -66 -85 -8
-13 -18 -20 -23 -15 -5 4 -5 1 -1 -5 4 -7 2 -13 -3 -13 -6 0 -10 -3 -9 -7 1
-5 -14 -37 -35 -72 -21 -35 -36 -65 -34 -68 3 -2 26 33 52 78 126 213 316 406
543 548 44 28 65 51 47 51 -3 0 -5 -4 -5 -8z"/>
<path d="M1854 2935 c-8 -19 3 -35 26 -35 19 0 30 17 23 38 -6 17 -42 15 -49
-3z"/>
<path d="M1034 2915 c-4 -9 -2 -21 4 -27 16 -16 47 -5 47 17 0 26 -42 34 -51
10z"/>
<path d="M1984 2895 c-8 -20 4 -35 26 -35 25 0 35 17 20 35 -16 19 -39 19 -46
0z"/>
<path d="M904 2865 c-10 -24 12 -42 34 -29 24 16 21 38 -6 42 -13 2 -25 -3
-28 -13z"/>
<path d="M2113 2844 c-3 -8 2 -23 11 -32 15 -15 17 -15 33 0 13 14 14 20 3 32
-16 20 -39 20 -47 0z"/>
<path d="M2462 2838 c75 -66 120 -92 70 -40 -15 15 -29 26 -31 25 -2 -1 -18 7
-35 18 l-31 21 27 -24z"/>
<path d="M782 2798 c2 -15 10 -23 23 -23 13 0 21 8 23 23 3 18 -1 22 -23 22
-22 0 -26 -4 -23 -22z"/>
<path d="M2234 2775 c-8 -20 4 -35 26 -35 23 0 32 13 24 34 -8 20 -43 21 -50
1z"/>
<path d="M2570 2763 c0 -4 46 -54 103 -112 128 -133 135 -142 219 -270 37 -59
68 -103 68 -98 0 13 -100 170 -138 217 -21 24 -37 47 -36 50 1 3 -48 53 -108
113 -59 59 -108 104 -108 100z"/>
<path d="M663 2734 c-3 -8 -1 -20 5 -26 16 -16 42 -2 42 22 0 24 -38 28 -47 4z"/>
<path d="M2362 2711 c-19 -11 -11 -45 11 -49 9 -2 20 4 23 13 9 21 -16 47 -34
36z"/>
<path d="M553 2654 c-3 -8 -1 -20 5 -26 16 -16 42 -2 42 22 0 24 -38 28 -47 4z"/>
<path d="M2460 2614 c-11 -12 -10 -18 3 -32 16 -15 18 -15 34 0 13 14 14 20 3
32 -7 9 -16 16 -20 16 -4 0 -13 -7 -20 -16z"/>
<path d="M450 2565 c-9 -11 -10 -19 -3 -26 17 -17 48 -6 48 16 0 25 -28 31
-45 10z"/>
<path d="M2557 2517 c-8 -21 8 -39 29 -35 27 5 25 42 -2 46 -12 2 -24 -3 -27
-11z"/>
<path d="M354 2466 c-8 -21 13 -46 32 -39 20 8 13 47 -9 51 -9 2 -20 -4 -23
-12z"/>
<path d="M2650 2414 c-11 -12 -11 -18 2 -30 16 -16 48 -9 48 10 0 13 -20 36
-31 36 -4 0 -12 -7 -19 -16z"/>
<path d="M1472 2364 c-20 -8 -34 -22 -38 -39 -5 -19 -11 -24 -23 -19 -9 4 -33
9 -53 12 -32 3 -42 -1 -68 -26 -23 -24 -30 -39 -30 -70 0 -25 6 -45 17 -53 15
-13 15 -12 5 8 -20 37 -14 73 17 104 34 34 64 37 109 9 l32 -20 0 25 c0 32 33
65 65 65 35 0 60 -43 60 -101 0 -26 4 -45 9 -42 4 3 6 30 4 59 -7 82 -46 114
-106 88z"/>
<path d="M277 2363 c-12 -12 -7 -41 7 -46 19 -7 40 18 32 38 -6 15 -28 20 -39
8z"/>
<path d="M2726 2301 c-11 -18 6 -42 28 -39 29 4 29 42 -1 46 -11 2 -24 -1 -27
-7z"/>
<path d="M196 2234 c-8 -21 1 -34 24 -34 19 0 30 17 23 38 -7 17 -40 15 -47
-4z"/>
<path d="M1673 2188 c-16 -26 -12 -38 8 -28 10 6 19 17 19 25 0 18 -16 20 -27
3z"/>
<path d="M2794 2175 c-8 -20 4 -35 27 -35 14 0 19 7 19 25 0 18 -5 25 -20 25
-11 0 -23 -7 -26 -15z"/>
<path d="M1547 2167 c-21 -16 -24 -37 -8 -65 11 -20 10 -26 -3 -41 -21 -23
-20 -31 5 -31 28 0 57 17 85 49 29 32 30 51 5 51 -30 0 -51 11 -51 25 0 21
-15 26 -33 12z"/>
<path d="M1430 2153 c0 -5 17 -24 36 -43 l36 -35 -21 35 c-15 26 -17 36 -8 42
7 5 1 8 -15 8 -16 0 -28 -3 -28 -7z"/>
<path d="M1257 2120 c-9 -11 -24 -20 -32 -20 -24 0 -17 -39 11 -65 28 -26 58
-31 84 -15 24 15 -2 35 -28 21 -11 -6 -26 -11 -32 -11 -18 0 -7 42 15 54 29
16 35 28 23 43 -14 18 -21 16 -41 -7z"/>
<path d="M134 2116 c-8 -21 13 -46 32 -39 20 8 13 47 -9 51 -9 2 -20 -4 -23
-12z"/>
<path d="M1442 2089 c22 -23 41 -40 43 -38 5 6 -64 79 -74 79 -4 0 10 -18 31
-41z"/>
<path d="M1673 2082 c5 -23 3 -29 -10 -28 -9 0 -18 -5 -20 -11 -5 -14 24 -17
51 -7 23 9 20 51 -5 65 -21 11 -22 9 -16 -19z"/>
<path d="M1367 2058 c-7 -4 7 -8 31 -8 23 0 42 4 42 9 0 10 -57 9 -73 -1z"/>
<path d="M2854 2056 c-9 -24 4 -48 23 -44 12 2 18 12 18 28 0 29 -32 41 -41
16z"/>
<path d="M1069 2002 c0 -4 0 -47 1 -95 1 -61 -2 -87 -9 -82 -7 4 -11 -4 -11
-19 0 -14 5 -27 10 -27 35 -6 35 -4 35 108 0 81 -4 114 -12 118 -7 2 -13 1
-14 -3z"/>
<path d="M87 1993 c-12 -12 -7 -41 7 -46 19 -7 40 18 32 38 -6 15 -28 20 -39
8z"/>
<path d="M1126 1981 c-4 -5 -4 -54 -2 -110 3 -70 1 -101 -7 -105 -7 -2 -2 -5
11 -5 22 -1 22 1 22 114 0 104 -7 134 -24 106z"/>
<path d="M1179 1963 c-5 -65 -4 -89 3 -100 5 -6 5 -14 0 -17 -6 -4 -7 -21 -1
-43 14 -60 12 -66 -16 -61 -27 6 -34 -6 -10 -16 9 -3 24 3 34 13 15 15 18 34
17 126 -1 77 -5 110 -13 112 -7 3 -14 -4 -14 -14z"/>
<path d="M1728 1967 c-3 -6 -6 -46 -7 -89 -2 -64 1 -78 16 -88 13 -8 14 -13 6
-16 -15 -7 -18 -64 -3 -64 6 0 10 14 10 30 0 31 16 41 26 15 4 -9 15 -13 28
-11 21 4 22 1 20 -54 -2 -43 1 -60 11 -64 12 -4 15 9 14 72 -1 46 -5 80 -12
84 -9 6 -9 8 1 8 6 0 12 11 12 24 0 17 -5 23 -17 22 -13 -2 -18 -12 -17 -37 0
-19 -5 -37 -10 -41 -17 -11 -34 10 -28 37 4 21 1 24 -13 19 -9 -4 -20 -1 -25
6 -8 12 -3 127 6 141 2 4 0 10 -5 13 -5 3 -11 0 -13 -7z"/>
<path d="M1766 1924 c-3 -30 -2 -63 3 -72 6 -11 9 6 10 56 0 40 -1 72 -3 72
-2 0 -6 -25 -10 -56z"/>
<path d="M1810 1956 c0 -13 -3 -44 -6 -70 -4 -29 -3 -46 4 -46 16 0 23 31 11
46 -8 10 -8 14 0 14 6 0 11 17 11 40 0 22 -4 40 -10 40 -5 0 -10 -11 -10 -24z"/>
<path d="M1247 1963 c-22 -21 3 -93 32 -93 14 0 14 -17 1 -25 -6 -3 -13 1 -16
9 -9 24 -24 19 -24 -7 0 -25 28 -57 49 -57 9 0 12 18 9 68 -2 46 -7 66 -16 65
-15 -4 -16 14 0 19 6 2 8 10 4 16 -8 13 -29 16 -39 5z"/>
<path d="M1520 1960 c-16 -10 -31 -101 -19 -116 5 -6 4 -15 -2 -21 -7 -7 -7
-13 -1 -17 17 -10 25 12 25 70 0 37 4 54 12 54 7 0 12 -11 11 -24 0 -13 -5
-21 -11 -18 -5 3 -4 -2 3 -11 8 -9 11 -21 7 -27 -3 -5 -1 -10 4 -10 7 0 11 24
11 59 0 60 -12 78 -40 61z"/>
<path d="M1600 1951 c-5 -11 -9 -65 -7 -122 2 -75 -1 -105 -11 -115 -8 -9 -9
-14 -2 -14 6 0 15 10 21 23 8 17 19 23 43 23 29 0 34 -4 34 -24 0 -13 3 -27 8
-32 12 -12 12 80 1 98 -5 7 -4 12 2 12 6 0 10 26 9 60 -1 37 -5 60 -12 60 -6
0 -5 4 3 9 8 5 11 16 8 26 -15 39 -27 -2 -26 -90 0 -52 -2 -99 -6 -104 -12
-20 -35 -12 -35 13 0 13 -3 32 -7 42 -4 12 -3 15 5 10 16 -10 15 7 0 22 -10
10 -10 14 0 21 8 5 11 21 8 47 -2 21 -5 42 -5 47 -2 14 -20 7 -31 -12z"/>
<path d="M1336 1929 c-11 -56 -7 -157 7 -162 9 -4 9 -8 -2 -15 -9 -6 -11 -19
-7 -35 4 -19 1 -29 -11 -36 -14 -7 -6 -9 28 -7 26 2 51 6 57 9 13 9 22 56 11
62 -4 3 -5 20 -2 39 3 21 1 36 -7 41 -10 6 -12 -7 -7 -63 l6 -72 -30 0 c-29 0
-39 13 -19 25 15 9 11 185 -3 185 -8 0 -7 3 1 9 16 10 13 42 -4 48 -6 2 -14
-10 -18 -28z"/>
<path d="M1416 1951 c-3 -5 -9 -31 -12 -59 -5 -51 -3 -54 47 -43 10 2 20 77
13 95 -7 17 -39 22 -48 7z m25 -75 c-6 -7 -8 -16 -4 -19 3 -4 1 -7 -5 -7 -9 0
-10 15 -3 65 1 6 6 2 12 -8 7 -13 7 -22 0 -31z"/>
<path d="M2900 1924 c-11 -12 -10 -18 3 -31 22 -23 52 0 36 28 -12 23 -22 24
-39 3z"/>
<path d="M47 1863 c-13 -12 -7 -41 10 -47 9 -4 23 0 31 8 13 12 13 18 2 30
-13 17 -32 21 -43 9z"/>
<path d="M1543 1780 c4 -68 13 -71 16 -5 1 33 -2 55 -8 55 -7 0 -10 -20 -8
-50z"/>
<path d="M2927 1787 c-8 -21 8 -39 29 -35 27 5 25 42 -2 46 -12 2 -24 -3 -27
-11z"/>
<path d="M1049 1728 c-8 -87 0 -117 33 -134 40 -21 117 -44 147 -44 29 0 20
13 -12 17 -44 6 -126 35 -138 49 -11 13 -15 99 -7 133 1 7 -2 15 -8 18 -8 2
-13 -12 -15 -39z"/>
<path d="M1288 1764 c-5 -4 -8 -23 -8 -43 0 -25 3 -32 11 -24 6 6 9 25 7 43
-2 17 -6 28 -10 24z"/>
<path d="M20 1705 c0 -22 4 -26 23 -23 14 2 22 10 22 23 0 13 -8 21 -22 23
-19 3 -23 -1 -23 -23z"/>
<path d="M2950 1655 c-11 -13 -11 -19 3 -33 20 -19 41 -5 35 24 -4 24 -22 28
-38 9z"/>
<path d="M986 1603 c-11 -14 -14 -23 -7 -18 10 5 11 2 7 -13 -5 -14 -1 -21 11
-25 10 -3 29 -12 43 -20 44 -26 74 -37 103 -39 15 -1 27 -6 27 -10 0 -4 8 -7
18 -6 9 0 44 -5 77 -11 62 -11 333 -16 322 -5 -3 3 -69 5 -146 5 -100 -1 -141
2 -141 10 0 7 -9 9 -25 5 -42 -11 -248 62 -265 94 -5 9 -5 22 1 31 23 37 2 39
-25 2z"/>
<path d="M1893 1613 c9 -11 17 -24 17 -29 0 -14 -103 -74 -127 -74 -12 0 -25
-5 -29 -12 -12 -19 62 -2 104 24 20 13 40 22 44 21 4 -2 12 5 17 15 11 21 -6
63 -29 70 -12 4 -11 1 3 -15z"/>
<path d="M10 1571 c0 -26 17 -36 35 -21 18 15 8 40 -16 40 -12 0 -19 -7 -19
-19z"/>
<path d="M1267 1550 c13 -12 176 -21 193 -10 10 7 -8 10 -60 10 -41 1 -90 3
-108 5 -19 1 -30 -1 -25 -5z"/>
<path d="M1490 1548 c0 -5 20 -8 45 -8 25 0 45 4 45 8 0 4 -20 8 -45 8 -25 -1
-45 -4 -45 -8z"/>
<path d="M2954 1516 c-9 -24 4 -48 23 -44 12 2 18 12 18 28 0 29 -32 41 -41
16z"/>
<path d="M16 1453 c-10 -10 -7 -41 4 -48 15 -9 40 14 34 30 -6 16 -29 26 -38
18z"/>
<path d="M2954 1376 c-15 -12 -16 -16 -5 -30 20 -24 41 -20 41 8 0 32 -12 39
-36 22z"/>
<path d="M946 1371 c-4 -5 -1 -11 5 -13 6 -2 12 -47 15 -113 2 -60 8 -113 13
-118 18 -18 31 5 31 57 0 42 5 57 24 75 33 31 45 9 17 -30 -11 -15 -21 -34
-21 -40 0 -21 50 -98 70 -109 24 -13 90 -13 90 0 0 6 -11 10 -24 10 -24 0 -58
34 -85 87 -10 19 -8 28 11 53 17 24 20 35 12 48 -16 25 -40 26 -63 3 -12 -12
-23 -21 -26 -21 -3 0 -5 27 -5 60 0 60 0 60 -29 60 -17 0 -32 -4 -35 -9z"/>
<path d="M1730 1370 c0 -5 4 -10 10 -10 5 0 11 -50 12 -117 2 -97 6 -118 18
-118 12 0 15 22 18 128 l3 127 -31 0 c-16 0 -30 -4 -30 -10z"/>
<path d="M2050 1370 c0 -5 5 -10 10 -10 6 0 10 -45 10 -114 0 -110 8 -142 31
-119 7 7 14 179 10 241 -1 14 -61 17 -61 2z"/>
<path d="M677 1350 c-15 -12 -31 -38 -37 -58 -31 -111 12 -212 90 -212 38 0
81 23 67 36 -4 4 -13 2 -19 -4 -19 -19 -56 -14 -72 10 -11 16 -16 46 -16 103
0 87 15 125 51 125 14 0 19 -7 19 -26 0 -19 5 -25 17 -22 25 5 29 39 7 55 -26
19 -78 16 -107 -7z"/>
<path d="M1352 1360 c-31 -13 -49 -55 -32 -75 16 -19 46 -19 53 0 7 16 -8 29
-22 20 -5 -3 -12 -1 -15 4 -9 14 22 41 46 41 18 0 19 -6 18 -97 -1 -54 -1
-103 -1 -110 2 -20 64 -26 104 -10 49 21 69 56 71 122 1 47 -3 58 -27 82 -24
24 -36 28 -100 30 -39 2 -82 -2 -95 -7z m164 -55 c15 -52 3 -134 -22 -152 -39
-29 -44 -19 -44 93 l0 105 27 -3 c22 -2 29 -10 39 -43z"/>
<path d="M1825 1350 c-4 -7 -3 -16 3 -22 14 -14 47 -6 47 12 0 18 -40 26 -50
10z"/>
<path d="M2265 1331 c-3 -11 -15 -23 -27 -26 -14 -5 -17 -10 -9 -18 6 -6 11
-44 11 -83 0 -63 3 -73 20 -79 20 -6 60 10 60 24 0 5 -8 8 -17 7 -15 -1 -18 8
-18 63 0 60 2 64 22 66 13 1 26 4 29 8 10 10 -5 39 -16 32 -6 -4 -8 -11 -5
-16 4 -5 -2 -9 -13 -9 -15 0 -18 5 -14 25 5 29 -14 34 -23 6z"/>
<path d="M2024 1314 c10 -25 -2 -33 -33 -21 -58 22 -111 -46 -77 -98 11 -16
12 -26 5 -31 -6 -3 -9 -18 -6 -32 3 -15 -1 -32 -10 -41 -14 -13 -13 -17 8 -34
32 -26 106 -18 131 13 33 40 15 63 -53 70 -31 3 -54 10 -57 19 -3 10 3 12 25
7 22 -5 36 -1 57 15 24 19 27 27 23 60 -3 20 0 42 5 47 13 13 3 42 -13 42 -6
0 -8 -7 -5 -16z m-36 -88 c3 -41 1 -47 -15 -44 -19 3 -30 55 -19 85 12 29 31
6 34 -41z m10 -122 c46 -13 20 -44 -38 -44 -34 0 -47 15 -30 35 13 16 32 18
68 9z"/>
<path d="M27 1313 c-11 -10 -8 -41 4 -49 6 -3 18 1 27 9 13 13 13 19 2 31 -14
17 -23 20 -33 9z"/>
<path d="M828 1289 c-21 -12 -24 -49 -5 -49 21 0 28 12 16 27 -9 10 -6 13 15
13 42 0 34 -35 -14 -60 -33 -17 -40 -26 -40 -50 0 -36 30 -56 60 -40 12 7 27
7 38 2 31 -17 38 -4 34 66 -3 52 -8 71 -24 85 -23 19 -54 22 -80 6z m53 -82
c-1 -4 -1 -19 -1 -33 0 -19 -5 -25 -17 -22 -22 4 -29 34 -12 54 12 14 31 15
30 1z"/>
<path d="M1157 1280 c-76 -60 -22 -180 69 -150 43 14 45 32 2 23 -23 -5 -34
-2 -45 12 -16 23 -17 45 -2 45 21 0 69 41 69 60 0 10 -10 20 -22 24 -35 9 -43
7 -71 -14z m53 -19 c0 -20 -27 -48 -36 -38 -4 3 -4 18 0 32 7 29 36 34 36 6z"/>
<path d="M1640 1287 c-15 -7 -31 -29 -39 -54 -13 -37 -13 -43 3 -67 25 -39 58
-52 96 -36 39 16 38 25 -1 25 -21 0 -36 7 -45 21 -13 19 -11 22 23 45 40 26
54 56 31 70 -18 12 -39 11 -68 -4z m44 -22 c3 -8 -2 -21 -10 -30 -30 -29 -44
-13 -24 26 13 23 26 25 34 4z"/>
<path d="M1825 1290 c-11 -5 -14 -9 -7 -9 8 -1 12 -23 12 -75 0 -76 6 -91 33
-80 12 4 15 21 13 78 -3 94 -9 104 -51 86z"/>
<path d="M2140 1290 c-13 -9 -13 -12 3 -21 23 -13 24 -114 1 -147 -12 -18 -13
-22 -1 -22 27 0 57 46 63 96 8 75 -25 121 -66 94z"/>
<path d="M2930 1234 c-11 -12 -10 -18 3 -32 16 -15 18 -15 33 0 19 18 12 48
-9 48 -8 0 -20 -7 -27 -16z"/>
<path d="M44 1165 c-8 -19 3 -35 26 -35 19 0 30 17 23 38 -6 17 -42 15 -49 -3z"/>
<path d="M2896 1101 c-10 -16 5 -41 25 -41 14 0 19 7 19 25 0 18 -5 25 -19 25
-11 0 -22 -4 -25 -9z"/>
<path d="M87 1044 c-12 -12 -8 -42 6 -47 21 -8 39 8 35 29 -3 19 -29 30 -41
18z"/>
<path d="M1902 1004 c3 -11 9 -28 14 -38 5 -13 4 -17 -4 -12 -14 8 -42 -32
-42 -61 0 -16 6 -23 19 -23 43 0 62 135 21 148 -9 3 -11 -1 -8 -14z m8 -103
c-10 -20 -30 -29 -30 -13 0 4 8 18 17 32 19 27 30 12 13 -19z"/>
<path d="M2195 968 c-14 -29 -25 -62 -25 -72 0 -28 15 -9 29 36 7 20 19 42 27
48 16 14 19 40 4 40 -6 0 -22 -24 -35 -52z"/>
<path d="M1333 938 c-12 -34 -19 -67 -15 -72 3 -5 11 6 17 25 8 22 19 35 33
37 19 3 21 0 16 -26 -4 -17 -1 -32 5 -36 7 -5 11 3 11 21 0 16 9 45 20 65 11
21 15 40 10 43 -5 3 -16 -8 -25 -25 -21 -41 -47 -41 -38 0 10 53 -11 32 -34
-32z"/>
<path d="M2860 975 c-16 -19 -5 -47 17 -43 22 4 29 43 9 51 -8 3 -20 -1 -26
-8z"/>
<path d="M1435 929 c-28 -53 6 -84 39 -37 l16 22 0 -23 c0 -31 10 -21 26 24
11 33 0 52 -13 20 -5 -13 -8 -13 -20 5 -19 28 -30 25 -48 -11z m21 -37 c-15
-15 -16 -15 -16 4 0 28 24 52 28 28 2 -9 -3 -24 -12 -32z"/>
<path d="M1644 952 c-18 -12 -36 -52 -30 -68 6 -16 32 -19 41 -4 3 6 -1 7 -9
4 -11 -4 -16 0 -16 14 0 21 23 46 33 35 4 -3 7 1 7 10 0 18 -8 21 -26 9z"/>
<path d="M1816 939 c-17 -25 -22 -69 -7 -69 6 0 13 5 16 10 3 6 1 10 -4 10
-15 0 -14 13 3 36 8 10 18 16 22 12 4 -4 1 -14 -5 -22 -8 -10 -9 -21 -3 -32 7
-13 10 -10 16 17 4 22 2 37 -8 47 -12 12 -16 10 -30 -9z"/>
<path d="M1958 943 c-24 -28 -28 -51 -12 -64 12 -10 18 -9 32 6 15 17 15 17 0
6 -9 -6 -18 -8 -21 -4 -6 10 10 53 19 53 3 0 3 -8 0 -17 -7 -17 -6 -17 10 -1
9 9 13 21 10 27 -10 16 -21 14 -38 -6z"/>
<path d="M2047 942 c-21 -23 -22 -46 -2 -62 12 -10 19 -10 27 -2 9 9 8 12 -5
12 -9 0 -17 6 -17 13 0 20 21 36 38 30 10 -4 13 -1 10 8 -7 21 -32 22 -51 1z"/>
<path d="M2123 952 c-17 -12 -35 -53 -29 -68 9 -23 28 -17 21 6 -4 12 -1 27 5
35 20 24 31 17 18 -10 -9 -19 -9 -28 0 -37 9 -9 12 -7 12 8 0 10 3 29 6 40 6
22 -14 38 -33 26z"/>
<path d="M2223 933 c-16 -33 -17 -60 -2 -68 17 -11 21 2 7 24 -11 18 -11 23 0
30 8 5 12 16 10 25 -2 11 -6 9 -15 -11z"/>
<path d="M2266 938 c-9 -12 -16 -31 -16 -41 0 -23 28 -34 43 -17 10 10 8 12
-5 7 -14 -5 -18 -1 -18 18 0 13 5 27 12 31 8 5 9 2 5 -10 -5 -12 -3 -16 5 -14
7 3 14 14 16 26 4 29 -22 29 -42 0z"/>
<path d="M1539 923 c-17 -44 -4 -63 14 -21 20 44 20 48 7 48 -6 0 -15 -12 -21
-27z"/>
<path d="M1585 938 c-10 -27 -10 -61 0 -64 6 -2 10 6 11 19 0 12 4 30 8 40 5
10 4 17 -3 17 -7 0 -14 -6 -16 -12z"/>
<path d="M1680 919 c-9 -21 -10 -33 -2 -41 7 -7 12 -4 15 8 3 11 8 29 12 42
10 33 -11 27 -25 -9z"/>
<path d="M1724 915 c-14 -44 0 -57 15 -13 13 37 14 48 3 48 -4 0 -12 -16 -18
-35z"/>
<path d="M1774 938 c-13 -18 -17 -68 -6 -68 9 0 25 70 18 77 -2 2 -7 -2 -12
-9z"/>
<path d="M134 906 c-8 -21 3 -36 27 -36 15 0 20 6 17 22 -4 27 -35 37 -44 14z"/>
<path d="M2796 844 c-9 -23 19 -53 35 -37 15 15 7 47 -12 51 -9 2 -19 -5 -23
-14z"/>
<path d="M196 783 c-4 -9 0 -23 8 -31 22 -22 50 2 35 29 -12 24 -35 25 -43 2z"/>
<path d="M2931 681 c-28 -49 -58 -94 -66 -101 -8 -7 -15 -17 -15 -22 0 -15
-110 -148 -180 -218 -82 -82 -142 -132 -250 -205 -92 -63 -119 -85 -80 -65 89
46 288 207 382 310 86 96 178 223 231 320 54 100 39 87 -22 -19z"/>
<path d="M2730 724 c-11 -12 -10 -18 3 -32 16 -15 18 -15 34 0 13 14 14 20 3
32 -7 9 -16 16 -20 16 -4 0 -13 -7 -20 -16z"/>
<path d="M60 686 c0 -10 111 -175 122 -183 13 -8 8 2 -49 83 -24 34 -43 66
-43 72 0 5 -7 15 -15 22 -8 7 -15 10 -15 6z"/>
<path d="M267 667 c-8 -21 8 -39 29 -35 27 5 25 42 -2 46 -12 2 -24 -3 -27
-11z"/>
<path d="M2644 605 c-4 -9 -2 -21 4 -27 16 -16 47 -5 47 17 0 26 -42 34 -51
10z"/>
<path d="M354 556 c-8 -21 3 -36 27 -36 15 0 20 6 17 22 -4 27 -35 37 -44 14z"/>
<path d="M2560 504 c-11 -12 -10 -18 3 -32 16 -15 18 -15 33 0 19 18 12 48 -9
48 -8 0 -20 -7 -27 -16z"/>
<path d="M220 450 c17 -22 36 -42 41 -46 5 -3 7 -10 3 -15 -3 -5 -2 -9 3 -7
10 2 98 -83 98 -96 1 -6 6 -10 12 -9 7 2 21 -9 32 -24 12 -14 21 -21 21 -15 0
5 -35 44 -77 85 -43 42 -94 96 -113 121 -19 25 -39 45 -43 46 -5 0 6 -18 23
-40z"/>
<path d="M448 458 c-8 -21 2 -38 22 -38 23 0 32 13 24 34 -7 19 -40 21 -46 4z"/>
<path d="M2457 407 c-8 -21 8 -39 29 -35 27 5 25 42 -2 46 -12 2 -24 -3 -27
-11z"/>
<path d="M557 374 c-13 -13 -7 -42 10 -48 21 -8 36 6 31 30 -3 19 -29 30 -41
18z"/>
<path d="M2361 326 c-16 -19 -7 -46 14 -46 22 0 30 29 13 46 -13 13 -16 13
-27 0z"/>
<path d="M667 294 c-13 -13 -7 -42 10 -48 21 -8 36 6 31 30 -3 19 -29 30 -41
18z"/>
<path d="M2243 253 c-17 -6 -16 -40 1 -46 21 -8 48 16 40 36 -6 17 -18 20 -41
10z"/>
<path d="M440 235 c0 -11 39 -41 140 -108 109 -73 120 -80 120 -74 0 3 -24 20
-52 38 -29 18 -88 59 -130 92 -43 32 -78 55 -78 52z"/>
<path d="M791 220 c-19 -11 -9 -45 14 -45 13 0 21 8 23 21 3 23 -17 37 -37 24z"/>
<path d="M2114 175 c-8 -19 3 -35 26 -35 19 0 34 25 24 41 -8 14 -44 10 -50
-6z"/>
<path d="M912 158 c-18 -18 -14 -36 9 -43 20 -7 38 7 39 27 0 15 -37 27 -48
16z"/>
<path d="M1986 124 c-4 -10 -2 -22 3 -27 15 -15 46 -3 46 18 0 26 -40 33 -49
9z"/>
<path d="M1040 104 c-11 -12 -10 -18 3 -32 16 -15 18 -15 34 0 13 14 14 20 3
32 -16 20 -24 20 -40 0z"/>
<path d="M1863 93 c-19 -7 -16 -40 4 -47 9 -4 23 0 31 8 13 12 13 18 2 30 -13
17 -17 18 -37 9z"/>
<path d="M1172 58 c2 -15 10 -23 23 -23 30 0 27 39 -3 43 -20 3 -23 0 -20 -20z"/>
<path d="M1720 55 c-9 -11 -10 -19 -3 -26 17 -17 48 -6 48 16 0 25 -28 31 -45
10z"/>
<path d="M1306 44 c-3 -9 -4 -20 0 -25 7 -12 41 -12 48 0 10 16 -5 41 -24 41
-10 0 -21 -7 -24 -16z"/>
<path d="M1444 35 c-4 -9 -2 -21 4 -27 15 -15 44 -1 40 19 -4 23 -36 29 -44 8z"/>
<path d="M1587 43 c-16 -15 -6 -33 18 -33 18 0 25 5 25 20 0 20 -28 28 -43 13z"/>
</g>
</svg>
